<?xml version="1.0" encoding="utf-8"?>
<svg version="1.1" id="Layer_1" xmlns="http://www.w3.org/2000/svg" xmlns:xlink="http://www.w3.org/1999/xlink" x="0px" y="0px" viewBox="0 0 50 50" width="50" height="50" style="enable-background:new 0 0 50 50;" xml:space="preserve">
<style type="text/css">
	.st0{fill:none;stroke:#231F20;stroke-linecap:round;stroke-linejoin:round;stroke-miterlimit:10;}
	.st1{fill:none;stroke:#ED1C24;stroke-miterlimit:10;}
	.st2{fill:none;stroke:#010101;stroke-width:4;stroke-linecap:round;stroke-linejoin:round;stroke-miterlimit:10;}
	.st3{fill:none;stroke:#010101;stroke-width:4;stroke-linecap:round;stroke-linejoin:round;}
	
		.st4{fill:none;stroke:#010101;stroke-width:4;stroke-linecap:round;stroke-linejoin:round;stroke-dasharray:11.6930418,11.6930418;}
	.st5{fill:none;stroke:#010101;stroke-linecap:round;stroke-linejoin:round;stroke-miterlimit:10;}
	.st6{fill:none;stroke:#010101;stroke-linecap:round;stroke-linejoin:round;stroke-miterlimit:10;stroke-dasharray:6,3;}
	.st7{fill:none;stroke:#000000;stroke-width:0.5;stroke-linecap:round;stroke-linejoin:round;stroke-miterlimit:10;}
	.st8{fill:none;stroke:#000000;stroke-width:0.618;stroke-linecap:round;stroke-linejoin:round;stroke-miterlimit:10;}
	.st9{fill:none;stroke:#000000;stroke-width:0.5;stroke-miterlimit:10;}
	.st10{fill:none;stroke:#EC008C;stroke-width:0.5;stroke-miterlimit:10;}
	.st11{fill:none;stroke:#000000;stroke-width:0.5;stroke-linecap:round;stroke-miterlimit:10;}
	.st12{fill:none;stroke:#000000;stroke-width:0.5;stroke-linecap:round;stroke-miterlimit:10;stroke-dasharray:1.145,2.1670001;}
	.st13{fill:none;stroke:#231F20;stroke-linecap:round;stroke-linejoin:round;}
	.st14{fill:none;stroke:#231F20;stroke-linecap:round;stroke-linejoin:round;stroke-dasharray:3.0666666,3.0666666;}
	.st15{fill:none;stroke:#000000;stroke-linecap:round;stroke-linejoin:round;stroke-miterlimit:10;}
	.st16{fill:#FFFFFF;}
	.st17{fill:none;stroke:#231F20;stroke-linecap:round;stroke-linejoin:round;stroke-dasharray:2.0658545,2.0658545;}
	
		.st18{clip-path:url(#SVGID_00000011017012231592119610000004182635018010114955_);fill:none;stroke:#020202;stroke-width:2.017854;stroke-linecap:round;stroke-linejoin:round;stroke-miterlimit:10;}
	
		.st19{clip-path:url(#SVGID_00000011017012231592119610000004182635018010114955_);fill:none;stroke:#020202;stroke-width:2.017854;stroke-linecap:round;stroke-linejoin:round;}
	
		.st20{clip-path:url(#SVGID_00000011017012231592119610000004182635018010114955_);fill:none;stroke:#020202;stroke-width:2.017854;stroke-linecap:round;stroke-linejoin:round;stroke-dasharray:2.0541754,6.1645441;}
	
		.st21{fill-rule:evenodd;clip-rule:evenodd;fill:none;stroke:#000000;stroke-linecap:round;stroke-linejoin:round;stroke-miterlimit:10;}
	.st22{fill:none;stroke:#000000;stroke-linecap:round;stroke-linejoin:round;}
	.st23{fill:none;stroke:#000000;stroke-linecap:round;stroke-linejoin:round;stroke-dasharray:2.0316622,3.0474932;}
	.st24{fill:none;stroke:#000000;stroke-linecap:round;stroke-linejoin:round;stroke-dasharray:2.0197263,3.0295897;}
	
		.st25{clip-path:url(#SVGID_00000033329716310839368780000016952931005895226511_);fill:none;stroke:#000000;stroke-linecap:round;stroke-linejoin:round;stroke-miterlimit:10;}
	.st26{fill:none;stroke:#000000;stroke-linecap:round;stroke-linejoin:round;stroke-dasharray:1.5628287,3.1256573;}
	.st27{fill:none;stroke:#000000;stroke-linecap:round;stroke-linejoin:round;stroke-dasharray:1.0133867,3.0401602;}
	.st28{fill:none;stroke:#000000;stroke-linecap:round;stroke-linejoin:round;stroke-miterlimit:10;stroke-dasharray:1,3;}
	.st29{fill:none;stroke:#000000;stroke-linecap:round;stroke-linejoin:round;stroke-dasharray:1.0368598,3.1105795;}
	.st30{fill:none;stroke:#000000;stroke-linecap:round;stroke-dasharray:1,3;}
	.st31{fill:none;stroke:#000000;stroke-linecap:round;stroke-linejoin:round;stroke-dasharray:0.985316,2.9559479;}
	.st32{fill:none;stroke:#000000;stroke-linecap:round;stroke-linejoin:round;stroke-dasharray:0.9730836,2.9192507;}
	.st33{fill:none;stroke:#000000;stroke-linecap:round;stroke-linejoin:round;stroke-dasharray:1.0340089,3.1020267;}
	.st34{fill:none;stroke:#000000;stroke-linecap:round;stroke-linejoin:round;stroke-miterlimit:10;stroke-dasharray:1,2;}
	.st35{clip-path:url(#SVGID_00000101805969489095105600000015507713405153283745_);}
</style>
<g>
	<g>
		<path class="st15" d="M28.5645218,29.056221c0,1.0746441-0.8711529,1.9455833-1.9455833,1.9455833h-5.2049217
			l-2.8163052,2.1102448v-2.1102448h-0.9844322c-1.0746479,0-1.9457998-0.8709393-1.9457998-1.9455833v-5.3345528
			c0-1.0746441,0.8711519-1.9458027,1.9457998-1.9458027h1.992094"/>
		<path class="st15" d="M21.4354782,18.8337555v5.3345528c0,1.0746422,0.8711529,1.9455833,1.9455833,1.9455833h5.2049217
			l2.8163052,2.1102428v-2.1102428h0.9844341c1.074646,0,1.945797-0.8709412,1.945797-1.9455833v-5.3345528
			c0-1.0746441-0.871151-1.9458046-1.945797-1.9458046h-9.005661
			C22.3066311,16.8879509,21.4354782,17.7591114,21.4354782,18.8337555z"/>
	</g>
	<g>
		<g>
			<g>
				<g>
					<path class="st15" d="M37.1752014,5.090632c0-1.5967419-0.1996918-2.5947051-1.1976547-3.5926685
						S33.5824318,0.5,33.0834503,0.5H16.9164467c-0.4989815,0-1.8961306,0-2.8940935,0.9979634
						S12.8247967,3.49389,12.8247967,5.090632v39.818737c0,1.5967407,0.1995926,2.5947037,1.1975565,3.5926666
						S16.4174652,49.5,16.9164467,49.5h16.1670036c0.4989815,0,1.8961334,0,2.8940964-0.997963
						s1.1976547-1.9959259,1.1976547-3.5926666V5.090632L37.1752014,5.090632z"/>
					<path class="st15" d="M30.3889523,0.5c-0.0997963,0-0.1994934,0.0997967-0.1994934,0.2993892
						c0,0.2993892-0.0000992,1.2973526-0.2994881,1.596741c-0.1995926,0.1995933-0.4988823,0.2993891-0.6984749,0.2993891
						c-0.5987778,0-7.5846214,0-8.1833992,0c-0.2993889,0-0.4989815-0.0997958-0.698576-0.2993891
						c-0.299387-0.2993884-0.299387-1.2973517-0.299387-1.596741c0-0.1995925-0.0997982-0.1995925-0.1995945-0.2993892"/>
					<path class="st15" d="M29.8899708,47.5040741c-0.6985741,0-9.181263,0-9.879837,0"/>
				</g>
			</g>
		</g>
	</g>
</g>
</svg>
