<?xml version="1.0" encoding="utf-8"?>
<svg version="1.1" id="Layer_1" xmlns="http://www.w3.org/2000/svg" xmlns:xlink="http://www.w3.org/1999/xlink" x="0px" y="0px"
	 viewBox="0 0 50 50" width="50" height="50" style="enable-background:new 0 0 50 50;" xml:space="preserve">
<style type="text/css">
	.st0{fill:none;stroke:#231F20;stroke-linecap:round;stroke-linejoin:round;stroke-miterlimit:10;}
	.st1{fill:none;stroke:#ED1C24;stroke-miterlimit:10;}
	.st2{fill:none;stroke:#010101;stroke-width:4;stroke-linecap:round;stroke-linejoin:round;stroke-miterlimit:10;}
	.st3{fill:none;stroke:#010101;stroke-width:4;stroke-linecap:round;stroke-linejoin:round;}
	
		.st4{fill:none;stroke:#010101;stroke-width:4;stroke-linecap:round;stroke-linejoin:round;stroke-dasharray:11.6930418,11.6930418;}
	.st5{fill:none;stroke:#010101;stroke-linecap:round;stroke-linejoin:round;stroke-miterlimit:10;}
	.st6{fill:none;stroke:#010101;stroke-linecap:round;stroke-linejoin:round;stroke-miterlimit:10;stroke-dasharray:6,3;}
	.st7{fill:none;stroke:#000000;stroke-width:0.5;stroke-linecap:round;stroke-linejoin:round;stroke-miterlimit:10;}
</style>
<g>
	<path class="st0" d="M49.5,34.1098824c0,4.6586533-8.4361992,14.7636642-8.4361992,14.7636642
		s-8.4375381-10.105011-8.4375381-14.7636642c0-4.6600132,3.7757111-8.4361858,8.4375381-8.4361858
		C45.7224617,25.6736965,49.5,29.4498692,49.5,34.1098824z"/>
	<path class="st0" d="M44.2271423,34.1098824c0,1.7490921-1.4166985,3.1635132-3.1635208,3.1635132
		c-1.7490883,0-3.1639595-1.4144211-3.1639595-3.1635132c0-1.7477341,1.4148712-3.1635132,3.1639595-3.1635132
		C42.8104439,30.9463692,44.2271423,32.3621483,44.2271423,34.1098824z"/>
	<path class="st0" d="M35.2732582,47.0672722c-3.1517296,1.4860687-6.6734905,2.3182144-10.3884487,2.3182144
		C11.416749,49.3854866,0.5,38.4691925,0.5,24.999321c0-13.4648867,10.916749-24.3848076,24.3848095-24.3848076
		c13.4648914,0,24.3839092,10.9199209,24.3839092,24.3848076"/>
	<path class="st0" d="M39.4423256,5.7408457c0,0-0.7963257,7.9645624-5.6186905,10.0800714
		c-4.2405453-1.0597944-8.4819927,2.1209507-7.4208374,2.1209507c1.0597973,0,2.1195946,4.2400856,2.1195946,4.2400856
		c1.0606976,1.0597935,3.180748,0,3.180748,0c2.6510773,2.6501656-4.2405453,7.4212837-4.2405453,8.481987
		c0,1.0597954,2.6501637,1.5903702,1.0597973,3.1807442c-1.5903683,1.590374-3.1807499,2.1195908-3.1807499,2.1195908
		c0,5.3012428-5.2998734,5.3012428-6.3610268,5.3012428c-1.0597973,0-3.1802912-4.2405396-3.1802912-5.3012428
		c0-1.0597954,1.0606966-2.1195908,1.0606966-3.1807442c0-1.0597954-2.1209517-3.180294-2.1209517-3.180294
		c0-4.2405396-3.1802912-3.1807442-6.3610401-3.1807442c-3.1802926,0-3.1802926-4.2405396-3.1802926-4.2405396
		s0-7.4208307,5.3012433-8.481534c5.3003445-1.0602474,5.3003445,1.0607033,5.3003445,1.0607033
		c2.1204939,2.1195879,6.3610258,0,8.4815359,0c0,0,1.059782-7.421288-1.0597992-6.3610373
		c-2.1204929,1.0597944-4.0210552,0.2407999-4.2414455-2.1209512c-0.3083801-3.3113499,9.2524529-5.3003368,9.2524529-5.3003368"/>
</g>
</svg>
