<?xml version="1.0" encoding="utf-8"?>
<svg version="1.1" id="Layer_1" xmlns="http://www.w3.org/2000/svg" xmlns:xlink="http://www.w3.org/1999/xlink" x="0px" y="0px" viewBox="0 0 50 50" width="50" height="50" style="enable-background:new 0 0 50 50;" xml:space="preserve">
<style type="text/css">
	.st0{fill:none;stroke:#9C509F;stroke-linecap:round;stroke-linejoin:round;stroke-miterlimit:10;}
	.st1{fill:none;stroke:#231F20;stroke-linecap:round;stroke-linejoin:round;stroke-miterlimit:10;}
	.st2{fill:none;stroke:#9C509F;stroke-miterlimit:10;}
	.st3{fill:none;stroke:#EE1C4E;stroke-miterlimit:10;}
	.st4{fill:none;stroke:#EE1C4E;stroke-linecap:round;stroke-linejoin:round;stroke-miterlimit:10;}
	.st5{fill:none;stroke:#000000;stroke-linecap:round;stroke-linejoin:round;stroke-miterlimit:10;}
	
		.st6{fill-rule:evenodd;clip-rule:evenodd;fill:none;stroke:#231F20;stroke-linecap:round;stroke-linejoin:round;stroke-miterlimit:10;}
	.st7{fill:none;stroke:#231F20;stroke-linecap:round;stroke-linejoin:round;}
	.st8{fill:none;stroke:#231F20;stroke-linecap:round;stroke-linejoin:round;stroke-miterlimit:10;stroke-dasharray:2,4;}
	.st9{fill:none;stroke:#EB0D8C;stroke-linecap:round;stroke-linejoin:round;stroke-miterlimit:10;}
	.st10{fill:#010101;}
	.st11{fill:none;stroke:#000000;stroke-linecap:round;stroke-linejoin:round;}
	.st12{fill:none;stroke:#000000;stroke-linecap:round;stroke-linejoin:round;stroke-dasharray:0.895648,2.686944;}
	.st13{fill:none;stroke:#000000;stroke-miterlimit:10;}
	.st14{fill:none;stroke:#000000;stroke-miterlimit:10;stroke-dasharray:1.994433,2.9916496;}
	.st15{fill:none;stroke:#000000;stroke-linecap:round;stroke-miterlimit:10;stroke-dasharray:1.5,3;}
	.st16{fill:none;stroke:#000000;stroke-linecap:round;stroke-miterlimit:10;}
	.st17{fill:none;stroke:#000000;stroke-linecap:round;stroke-linejoin:round;stroke-miterlimit:10;stroke-dasharray:2,3;}
	.st18{fill:none;stroke:#000000;stroke-linecap:round;stroke-linejoin:round;stroke-dasharray:1.7208045,2.5812066;}
	.st19{fill:none;stroke:#000000;stroke-linecap:round;stroke-linejoin:round;stroke-dasharray:2.0846779,3.1270168;}
	.st20{fill:none;stroke:#000000;stroke-linecap:round;stroke-linejoin:round;stroke-dasharray:1.9725212,2.9587817;}
	.st21{fill:none;stroke:#000000;stroke-linecap:round;stroke-linejoin:round;stroke-dasharray:1.7189177,2.5783768;}
</style>
<g>
	<g>
		<g>
			<polyline class="st5" points="27.8550529,36.3933678 27.8550529,30.8139324 26.7153454,31.2646866 			"/>
			<path class="st5" d="M33.5535889,33.6620598c0,1.5749626-0.4708138,2.8504066-1.7095623,2.8504066
				c-1.237608,0-1.7095604-1.275444-1.7095604-2.8504066c0-1.5726814,0.4719524-2.8481274,1.7095604-2.8481274
				C33.0827751,30.8139324,33.5535889,32.0893784,33.5535889,33.6620598z"/>
			<path class="st5" d="M39.2521248,33.6620598c0,1.5749626-0.4708138,2.8504066-1.7095642,2.8504066
				c-1.237606,0-1.7095604-1.275444-1.7095604-2.8504066c0-1.5726814,0.4719543-2.8481274,1.7095604-2.8481274
				C38.781311,30.8139324,39.2521248,32.0893784,39.2521248,33.6620598z"/>
			<g>
				<polyline class="st5" points="24.1054153,38.7495995 19.8771038,46.0608215 24.2656593,45.3173904 25.7870541,49.5 
					29.5300789,43.2138329 				"/>
				<polyline class="st5" points="41.8620529,38.7495995 46.0903664,46.0608215 41.7018089,45.3173904 40.1804161,49.5 
					36.4373894,43.2138329 				"/>
				<circle class="st5" cx="32.9837341" cy="33.5441017" r="10.2573633"/>
			</g>
		</g>
	</g>
	<g>
		<path class="st5" d="M24.8194523,23.286459c-1.7920341-4.0897751-4.5701141-7.4516535-8.861042-7.4516535
			c-10.9534321,0-12.0487757,21.9068642-12.0487757,21.9068642h16.3637218"/>
		<path class="st5" d="M19.1909866,16.5706558C20.968729,8.1833944,24.2269363,0.5,30.1978722,0.5
			c7.5597,0,10.7715187,12.3190031,12.136097,22.7867184"/>
		<polyline class="st5" points="21.3560429,9.1836624 25.8164997,13.6441183 30.1978722,9.2627459 34.5792465,13.6441183 
			39.0633621,9.1600027 		"/>
	</g>
</g>
</svg>
